<?xml version="1.0" encoding="UTF-8" standalone="no"?>
<svg
   width="24"
   height="24"
   viewBox="0 0 24 24"
   fill="none"
   version="1.1"
   id="svg2"
   sodipodi:docname="icon_menu_close.svg"
   inkscape:version="1.3.2 (091e20e, 2023-11-25, custom)"
   xmlns:inkscape="http://www.inkscape.org/namespaces/inkscape"
   xmlns:sodipodi="http://sodipodi.sourceforge.net/DTD/sodipodi-0.dtd"
   xmlns="http://www.w3.org/2000/svg"
   xmlns:svg="http://www.w3.org/2000/svg">
  <defs
     id="defs2" />
  <sodipodi:namedview
     id="namedview2"
     pagecolor="#ffffff"
     bordercolor="#000000"
     borderopacity="0.25"
     inkscape:showpageshadow="2"
     inkscape:pageopacity="0.0"
     inkscape:pagecheckerboard="0"
     inkscape:deskcolor="#d1d1d1"
     inkscape:zoom="21.208333"
     inkscape:cx="12"
     inkscape:cy="11.952849"
     inkscape:window-width="1366"
     inkscape:window-height="705"
     inkscape:window-x="-8"
     inkscape:window-y="-8"
     inkscape:window-maximized="1"
     inkscape:current-layer="svg2" />
  <path
     d="M17 11L12 6L7 11"
     stroke="black"
     stroke-width="2"
     stroke-linecap="round"
     stroke-linejoin="round"
     id="path1" />
  <path
     d="M17 18L12 13L7 18"
     stroke="black"
     stroke-width="2"
     stroke-linecap="round"
     stroke-linejoin="round"
     id="path2" />
  <path
     style="fill:#0000ff;stroke-width:0.0471513"
     d="M 6.6483301,11.901251 C 6.1312323,11.677271 5.8924714,11.074323 6.1285185,10.58856 6.2604893,10.316978 11.369805,5.2172411 11.609487,5.1178679 c 0.235527,-0.09765 0.584721,-0.090065 0.814874,0.017701 0.265258,0.1242026 5.366928,5.2409401 5.467594,5.4837421 0.328895,0.793276 -0.50617,1.625356 -1.27113,1.266586 C 16.494827,11.826803 15.704484,11.068044 14.239876,9.6000952 13.034086,8.3915556 12.026143,7.4027505 12,7.4027505 c -0.02614,0 -1.034086,0.9888051 -2.2398758,2.1973447 C 8.2955155,11.068044 7.5051736,11.826803 7.3791749,11.885897 7.152117,11.992388 6.8723073,11.998266 6.6483301,11.901251 Z"
     id="path3" />
  <path
     style="fill:#1b71a3;stroke-width:0.0471513;fill-opacity:1"
     d="M 6.5496558,18.845103 C 6.2715381,18.698274 6.0755737,18.413676 6.0468654,18.114903 6.0014022,17.641759 5.9246153,17.732981 8.7871275,14.859488 10.579736,13.060004 11.495065,12.17377 11.62279,12.113962 c 0.230308,-0.107843 0.487414,-0.114271 0.720571,-0.01801 0.224766,0.09279 5.393731,5.239468 5.535218,5.51135 0.139754,0.268552 0.104672,0.6656 -0.08263,0.935186 -0.255721,0.368063 -0.767428,0.514281 -1.188427,0.339588 -0.120097,-0.04984 -0.873331,-0.769927 -2.391839,-2.286602 L 11.999149,14.381611 9.80704,16.57491 c -1.4324379,1.433216 -2.2585434,2.225632 -2.3838128,2.286601 -0.2649315,0.128942 -0.6105513,0.12245 -0.8735714,-0.01641 z"
     id="path4" />
  <path
     style="fill:#1b71a3;fill-opacity:1;stroke-width:0.0471513"
     d="M 6.5162737,11.790782 C 6.140765,11.549624 5.9680301,11.059341 6.1256597,10.68208 6.2401151,10.40815 10.429815,6.1626452 11.454309,5.282456 l 0.232304,-0.1995834 0.338899,0.017114 c 0.325016,0.016412 0.349303,0.026044 0.592843,0.2351089 0.954446,0.8193345 5.147867,5.0882195 5.258594,5.3532255 0.09573,0.229112 0.07821,0.439719 -0.05956,0.716196 -0.178989,0.359185 -0.411383,0.501181 -0.820243,0.501181 -0.296785,0 -0.327079,-0.01049 -0.544768,-0.188605 C 16.325597,11.61336 15.284615,10.600197 14.139083,9.465619 12.99355,8.3310414 12.031098,7.4027506 12.0003,7.4027506 c -0.0308,0 -0.994088,0.928741 -2.1406441,2.063869 -1.1465557,1.1351274 -2.1866246,2.1474324 -2.3112645,2.2495654 -0.1994892,0.163466 -0.2612825,0.187747 -0.5161882,0.202832 -0.258556,0.0153 -0.3138147,0.0016 -0.5159295,-0.128235 z"
     id="path6" />
</svg>
