<?xml version="1.0" encoding="UTF-8" standalone="no"?>
<svg
   width="24"
   height="24"
   viewBox="0 0 24 24"
   fill="none"
   version="1.1"
   id="svg3"
   sodipodi:docname="icon_menu_open.svg"
   inkscape:version="1.3.2 (091e20e, 2023-11-25, custom)"
   xmlns:inkscape="http://www.inkscape.org/namespaces/inkscape"
   xmlns:sodipodi="http://sodipodi.sourceforge.net/DTD/sodipodi-0.dtd"
   xmlns="http://www.w3.org/2000/svg"
   xmlns:svg="http://www.w3.org/2000/svg">
  <defs
     id="defs3" />
  <sodipodi:namedview
     id="namedview3"
     pagecolor="#ffffff"
     bordercolor="#000000"
     borderopacity="0.25"
     inkscape:showpageshadow="2"
     inkscape:pageopacity="0.0"
     inkscape:pagecheckerboard="0"
     inkscape:deskcolor="#d1d1d1"
     inkscape:zoom="21.208333"
     inkscape:cx="12"
     inkscape:cy="11.952849"
     inkscape:window-width="1366"
     inkscape:window-height="705"
     inkscape:window-x="-8"
     inkscape:window-y="-8"
     inkscape:window-maximized="1"
     inkscape:current-layer="svg3" />
  <path
     d="M3 12H21"
     stroke="black"
     stroke-width="2"
     stroke-linecap="round"
     stroke-linejoin="round"
     id="path1" />
  <path
     d="M3 6H21"
     stroke="black"
     stroke-width="2"
     stroke-linecap="round"
     stroke-linejoin="round"
     id="path2" />
  <path
     d="M3 18H21"
     stroke="black"
     stroke-width="2"
     stroke-linecap="round"
     stroke-linejoin="round"
     id="path3" />
  <path
     style="fill:#1b71a3;stroke-width:0.0471513;fill-opacity:1"
     d="M 2.66993,6.9091187 C 1.9440885,6.6503934 1.8146293,5.6578482 2.4483395,5.2102161 L 2.6485949,5.0687623 H 12 21.351405 l 0.200256,0.1414538 c 0.358808,0.2534502 0.507106,0.7270972 0.353547,1.1291864 C 21.808478,6.5926846 21.524605,6.8600116 21.280351,6.927837 21.156097,6.96234 18.269165,6.977303 11.976424,6.976056 4.337801,6.9745439 2.8229091,6.9636479 2.66993,6.9091187 Z"
     id="path4" />
  <path
     style="fill:#0000ff;stroke-width:0.0471513"
     d="M 2.6168959,12.877209 C 1.9789078,12.58183 1.8371395,11.778399 2.3398303,11.30702 2.6532819,11.013093 1.9364448,11.033299 12.010273,11.034434 c 8.838939,9.97e-4 9.191317,0.0043 9.372831,0.08836 0.773282,0.358018 0.773282,1.3964 0,1.754418 C 21.201563,12.96126 20.85014,12.96453 12,12.96453 c -8.8501402,0 -9.2015628,-0.0033 -9.3831041,-0.08732 z"
     id="path5" />
  <path
     style="fill:#0000ff;stroke-width:0.0471513"
     d="M 2.5557745,18.854659 C 2.2338789,18.695018 2.0262411,18.346377 2.0285404,17.969388 c 0.00228,-0.373549 0.328939,-0.796646 0.693157,-0.897791 0.2507202,-0.06963 18.3078626,-0.06908 18.5586536,5.66e-4 0.244254,0.06782 0.528127,0.335152 0.624857,0.588435 0.153558,0.402086 0.0053,0.875733 -0.353544,1.129186 l -0.200251,0.141454 -9.296532,0.01194 -9.2965313,0.01194 z"
     id="path6" />
  <path
     style="fill:#1b71a3;fill-opacity:1;stroke-width:0.0471513"
     d="M 2.7283936,12.874828 C 2.6470848,12.855271 2.5120161,12.790463 2.4282411,12.73081 2.2665094,12.615646 2.0523098,12.216609 2.0515412,12.029046 c -8.765e-4,-0.213905 0.1115939,-0.484854 0.2791839,-0.672573 0.154943,-0.173553 0.1944741,-0.191717 0.4983516,-0.228989 0.5520342,-0.06771 7.3690043,-0.09902 13.0879713,-0.06011 l 5.402313,0.03675 0.200477,0.132701 c 0.221051,0.14632 0.42816,0.515481 0.42816,0.763173 0,0.247732 -0.207107,0.616855 -0.428202,0.763173 l -0.200518,0.132701 -9.221525,0.0073 c -5.0718387,0.004 -9.2880505,-0.0087 -9.3693594,-0.0283 z"
     id="path7" />
  <path
     style="fill:#1b71a3;fill-opacity:1;stroke-width:0.0471513"
     d="m 7.4616897,18.966604 c 2.4960708,-0.0067 6.5805503,-0.0067 9.0766213,0 2.49607,0.0067 0.453831,0.01226 -4.538311,0.01226 -4.9921413,0 -7.0343811,-0.0055 -4.5383103,-0.01226 z"
     id="path8" />
  <path
     style="fill:#1b71a3;fill-opacity:1;stroke-width:0.0471513"
     d="M 2.598388,18.851233 C 2.2843661,18.690105 2.0501173,18.309737 2.0523791,17.964637 c 0.0011,-0.16773 0.1505195,-0.471823 0.3102242,-0.631356 0.301071,-0.300746 -0.4297508,-0.279435 9.6138217,-0.280334 7.104634,-6.36e-4 9.185987,0.01211 9.320378,0.05706 0.213218,0.07132 0.525419,0.401426 0.603551,0.638168 0.115988,0.351448 -0.06085,0.807355 -0.409445,1.055574 l -0.136337,0.09708 -9.300132,0.01521 c -8.6712692,0.01418 -9.310675,0.0098 -9.456052,-0.0648 z"
     id="path9" />
</svg>
